<svg xmlns="http://www.w3.org/2000/svg" xmlns:xlink="http://www.w3.org/1999/xlink" width="940" zoomAndPan="magnify" viewBox="0 0 705 337.499995" height="450" preserveAspectRatio="xMidYMid meet" version="1.0"><defs><g/><clipPath id="id1"><path d="M 284 9 L 533 9 L 533 337 L 284 337 Z M 284 9 " clip-rule="nonzero"/></clipPath></defs><g fill="#ff0800" fill-opacity="1"><g transform="translate(14.374262, 331.393177)"><g><path d="M 42.546875 0 L 137.421875 -110.484375 C 131.953125 -107.359375 124.273438 -105.796875 114.390625 -105.796875 C 102.941406 -105.796875 91.359375 -108.203125 79.640625 -113.015625 C 67.929688 -117.835938 56.9375 -124.738281 46.65625 -133.71875 C 36.375 -142.695312 27.976562 -154.601562 21.46875 -169.4375 C 14.96875 -184.269531 11.71875 -200.664062 11.71875 -218.625 C 11.71875 -236.84375 15.164062 -253.175781 22.0625 -267.625 C 28.957031 -282.070312 38.195312 -293.523438 49.78125 -301.984375 C 61.363281 -310.441406 74.050781 -316.878906 87.84375 -321.296875 C 101.632812 -325.722656 116.078125 -327.9375 131.171875 -327.9375 C 167.347656 -327.9375 197.800781 -317.394531 222.53125 -296.3125 C 247.257812 -275.238281 259.625 -249.34375 259.625 -218.625 C 259.625 -192.601562 255.976562 -171.195312 248.6875 -154.40625 C 241.394531 -137.613281 228.125 -116.207031 208.875 -90.1875 L 133.125 0 Z M 183.484375 -218.625 C 183.484375 -232.675781 178.925781 -244.320312 169.8125 -253.5625 C 160.707031 -262.800781 149 -267.421875 134.6875 -267.421875 C 120.375 -267.421875 108.53125 -262.800781 99.15625 -253.5625 C 89.789062 -244.320312 85.109375 -232.675781 85.109375 -218.625 C 85.109375 -204.3125 89.859375 -192.40625 99.359375 -182.90625 C 108.859375 -173.40625 120.632812 -168.65625 134.6875 -168.65625 C 148.21875 -168.65625 159.734375 -173.40625 169.234375 -182.90625 C 178.734375 -192.40625 183.484375 -204.3125 183.484375 -218.625 Z M 183.484375 -218.625 "/></g></g></g><g clip-path="url(#id1)"><g fill="#ff0800" fill-opacity="1"><g transform="translate(275.554142, 331.393177)"><g><path d="M 226.4375 -322.078125 L 131.5625 -211.59375 C 137.03125 -214.71875 144.707031 -216.28125 154.59375 -216.28125 C 166.050781 -216.28125 177.632812 -213.875 189.34375 -209.0625 C 201.0625 -204.25 212.054688 -197.351562 222.328125 -188.375 C 232.609375 -179.394531 241.003906 -167.484375 247.515625 -152.640625 C 254.023438 -137.804688 257.28125 -121.410156 257.28125 -103.453125 C 257.28125 -85.234375 253.832031 -68.898438 246.9375 -54.453125 C 240.039062 -40.015625 230.800781 -28.566406 219.21875 -20.109375 C 207.632812 -11.648438 194.941406 -5.207031 181.140625 -0.78125 C 167.347656 3.644531 152.90625 5.859375 137.8125 5.859375 C 101.632812 5.859375 71.179688 -4.679688 46.453125 -25.765625 C 21.734375 -46.847656 9.375 -72.742188 9.375 -103.453125 C 9.375 -129.484375 13.015625 -150.890625 20.296875 -167.671875 C 27.585938 -184.460938 40.863281 -205.875 60.125 -231.90625 L 135.859375 -322.078125 Z M 85.5 -103.453125 C 85.5 -89.398438 90.050781 -77.753906 99.15625 -68.515625 C 108.269531 -59.273438 119.984375 -54.65625 134.296875 -54.65625 C 148.609375 -54.65625 160.445312 -59.273438 169.8125 -68.515625 C 179.1875 -77.753906 183.875 -89.398438 183.875 -103.453125 C 183.875 -117.773438 179.125 -129.679688 169.625 -139.171875 C 160.125 -148.671875 148.347656 -153.421875 134.296875 -153.421875 C 120.765625 -153.421875 109.25 -148.671875 99.75 -139.171875 C 90.25 -129.679688 85.5 -117.773438 85.5 -103.453125 Z M 85.5 -103.453125 "/></g></g></g></g><g fill="#ff0800" fill-opacity="1"><g transform="translate(536.734021, 331.393177)"><g><path d="M 11.328125 -190.125 L 11.328125 -262.75 L 103.0625 -322.078125 L 137.8125 -322.078125 L 137.8125 0 L 64.421875 0 L 64.421875 -224.484375 Z M 11.328125 -190.125 "/></g></g></g></svg>